# xmcd CD database file
#
# Track frame offsets:
#	150
#	25212
#	50067
#	70757
#	95752
#
# Disc length: 1550 seconds
#
# Revision: 0
# Processed by: cddbd v1.5.1PL0 Copyright (c) Steve Scherf et al.
# Submitted via: CDex 1.51
#
DISCID=41060c05
DTITLE=YUAMU - Pink
DYEAR=1900
DGENRE=
TTITLE0=Pink
TTITLE1=Pink(T-MIX)
TTITLE2=For The Day
TTITLE3=Pink(ORIGINAL KARAOKE)
TTITLE4=For The Day(ORIGINAL KARAOKE)
EXTD=
EXTT0=
EXTT1=
EXTT2=
EXTT3=
EXTT4=
PLAYORDER=
